<?xml version="1.0" encoding="UTF-8"?>
<svg width="51px" height="15px" viewBox="0 0 51 15" version="1.1" xmlns="http://www.w3.org/2000/svg" xmlns:xlink="http://www.w3.org/1999/xlink">
    <!-- Generator: Sketch 54 (76480) - https://sketchapp.com -->
    <title>Atoms/Logos/EON_Logos_small</title>
    <desc>Created with Sketch.</desc>
    <g id="-----Atoms" stroke="none" stroke-width="1" fill="none" fill-rule="evenodd">
        <g id="Atoms" transform="translate(-140.000000, -311.000000)" fill="#EA1C0A">
            <g id="Section-[100v]" transform="translate(-49.000000, 118.000000)">
                <g id="Logos" transform="translate(49.000000, 0.000000)">
                    <g id="Logo_Small" transform="translate(140.000000, 130.000000)">
                        <g id="Atoms/Logos/EON_Logos_small" transform="translate(0.000000, 63.000000)">
                            <path d="M50.2039552,5.55035213 C50.2039552,7.26569554 48.2026263,13.1387468 47.8742667,14.0201649 C47.6583711,14.5992897 47.2448222,14.6812737 46.7090682,14.6812737 C45.7393978,14.6812737 45.0081157,14.445976 44.6515958,14.1548787 C44.5777415,14.0949257 44.4863534,13.9663517 44.5483414,13.7780052 C44.9128312,12.6703184 46.2964048,8.68181545 46.2964048,7.82008066 C46.2964048,7.34840185 46.1594997,6.99373984 45.6976001,6.99373984 C42.8973336,6.99373984 37.7525015,13.086017 36.7971769,14.1751038 C36.48458,14.5310299 36.0265767,14.6061518 35.4915312,14.6061518 C34.8293216,14.6061518 34.1240745,14.2478782 34.0569503,14.2124842 C33.8476078,14.1021489 33.8376897,13.9802564 33.8996777,13.7229278 L34.0755467,12.9937398 C34.3973533,11.6597845 36.0643009,6.72449287 37.2199355,4.04990068 C37.2689946,3.93685668 37.3169911,3.84295431 37.5679542,3.80304581 C37.6844918,3.78444592 38.0668696,3.69361344 38.5994356,3.69361344 C38.9899604,3.69361344 39.7488714,3.72196473 40.129301,3.92999458 C40.129301,3.92999458 40.1324889,3.92421598 40.1324889,4.57521218 C40.1324889,4.85637754 40.1625974,5.81237585 41.0451303,5.81237585 C42.5344378,5.81237585 45.2380029,3.20622404 47.6284397,3.20622404 C49.7300122,3.20622404 50.2039552,4.52844158 50.2039552,5.55035213 M20.4675729,7.70631433 C20.4675729,8.062421 20.0607541,9.04261723 20.0031937,9.18744357 C19.6374642,10.107145 18.6784203,10.2563053 18.0032817,10.2563053 C16.9903968,10.2563053 16.6423781,9.88539096 16.6423781,9.30012641 C16.6423781,8.84722807 17.0160775,8.0653103 17.0653138,7.95009932 C17.5213688,6.88466863 18.337663,6.76891591 19.1433308,6.76891591 C19.8264392,6.76891591 20.4675729,7.05856859 20.4675729,7.70631433 M11.8058923,5.45626919 C11.8058923,4.77800518 11.774544,3.80611569 11.2543756,3.80611569 C9.56139307,3.80611569 6.58738291,6.44603624 6.28913177,6.74995485 C6.06845427,6.97513995 6.23351963,6.9561789 6.52822859,6.9561789 L10.334827,6.9561789 C11.6835101,6.9561789 11.8058923,6.72485403 11.8058923,5.45626919 M15.8700068,5.81237585 C15.8700068,9.13579727 13.8649586,9.82507675 11.6404727,9.82507675 L10.077488,9.82507675 C8.51538878,9.82507675 5.36958313,9.73117438 5.36958313,9.73117438 C5.11720316,9.7261181 4.92840523,9.67501354 4.92840523,9.82507675 C4.92840523,10.9087462 6.13079655,12.5439114 7.96263237,12.5439114 C9.40518315,12.5439114 10.334827,11.6251129 10.5370852,11.4075122 C10.5370852,11.4075122 12.194646,11.2124842 13.2587154,11.2124842 C14.2919678,11.2124842 15.814926,11.3811473 15.814926,11.9812195 C15.814926,13.1517486 12.0850157,15 8.95568114,15 C4.24405702,15 0,12.3902366 0,9.24378499 C0,3.97134774 9.98025527,0 12.8910376,0 C15.5124242,0 15.8700068,4.25684705 15.8700068,5.81237585 M28.3749473,5.70005417 C28.0200214,5.70005417 27.4922373,5.75639559 27.2529634,6.09372178 C26.3571473,7.35833383 25.7634788,10.520496 25.7634788,11.4001083 C25.7634788,12.0007223 26.1727771,11.9624391 26.7196889,11.9624391 C27.0379534,11.9624391 27.5515687,11.9705652 27.8414958,11.6626738 C28.6285671,10.8267622 29.307602,7.03888521 29.307602,6.35502317 C29.307602,5.86871727 29.2732429,5.70005417 28.3749473,5.70005417 M34.2960471,5.5312105 C34.2960471,6.97477879 32.8981277,10.1443448 32.4489799,11.02486 C30.5710959,14.7061939 28.0623504,14.6812737 25.2300272,14.6812737 C23.8460994,14.6812737 20.7615734,14.697526 20.7615734,12.0561608 C20.7615734,10.8747968 21.7712704,8.70944441 22.6004936,6.65641365 C22.9531171,5.78330223 24.4553535,2.8499368 29.5700772,2.8499368 C31.6797966,2.8499368 34.2960471,3.18762415 34.2960471,5.5312105" id="Element/Logos/EON_Logos_small"></path>
                        </g>
                    </g>
                </g>
            </g>
        </g>
    </g>
</svg>
